<svg width="160" height="31" viewBox="0 0 160 31" fill="none" xmlns="http://www.w3.org/2000/svg">
  <!-- Store Icon -->
  <path d="M8.12346 24.8618C9.5969 24.8618 10.7914 23.6674 10.7914 22.194C10.7914 20.7205 9.5969 19.526 8.12346 19.526C6.65002 19.526 5.45557 20.7205 5.45557 22.194C5.45557 23.6674 6.65002 24.8618 8.12346 24.8618Z" stroke="#0AAD0A" stroke-width="1.28276" stroke-miterlimit="10" stroke-linecap="round"/>
  <path d="M6.97607 9.18945H23.1146" stroke="#0AAD0A" stroke-width="1.28276" stroke-miterlimit="10" stroke-linecap="round"/>
  <path d="M8.38892 12.4171H22.4092" stroke="#0AAD0A" stroke-width="1.28276" stroke-miterlimit="10" stroke-linecap="round"/>
  <path d="M7.66113 19.525H18.1138C19.2586 19.525 20.2784 18.7977 20.6505 17.7144L24.9585 5.1809C25.3307 4.09761 26.3495 3.37036 27.4953 3.37036H30.6292" stroke="#0AAD0A" stroke-width="1.28276" stroke-miterlimit="10" stroke-linecap="round"/>
  <path d="M1 26.527C1 26.527 11.26 23.0552 25.1058 26.527" stroke="#0AAD0A" stroke-width="1.28276" stroke-miterlimit="10" stroke-linecap="round"/>
  <text x="40" y="20" fill="#21313C" font-family="Arial, sans-serif" font-size="22" font-weight="bold">
    Dukarite
  </text>
</svg>